
<svg xmlns="http://www.w3.org/2000/svg" width="35" height="34"><path d="M 17.5 9.223 C 17.5 13.718 13.902 17.362 9.464 17.362 L 1.429 17.362 L 1.429 9.223 C 1.429 4.729 5.026 1.085 9.464 1.085 C 13.902 1.085 17.5 4.729 17.5 9.223 Z M 17.5 25.5 C 17.5 21.005 21.098 17.362 25.536 17.362 L 33.571 17.362 L 33.571 25.5 C 33.571 29.995 29.974 33.638 25.536 33.638 C 21.098 33.638 17.5 29.995 17.5 25.5 Z M 1.429 25.5 C 1.429 29.995 5.026 33.638 9.464 33.638 L 17.5 33.638 L 17.5 25.5 C 17.5 21.005 13.902 17.362 9.464 17.362 C 5.026 17.362 1.429 21.005 1.429 25.5 Z M 33.571 9.223 C 33.571 4.729 29.974 1.085 25.536 1.085 L 17.5 1.085 L 17.5 9.223 C 17.5 13.718 21.098 17.362 25.536 17.362 C 29.974 17.362 33.571 13.718 33.571 9.223 Z" fill="rgb(78, 44, 212)"></path></svg>