
<?xml version="1.0" encoding="UTF-8"?>
<svg id="Layer_2" data-name="Layer 2" xmlns="http://www.w3.org/2000/svg" viewBox="0 0 679.46 188.06">
  <defs>
    <style>
      .cls-1 {
        fill: #fff;
        stroke-width: 0px;
      }
    </style>
  </defs>
  <g id="_레이어_1" data-name="레이어 1">
    <g>
      <g>
        <path class="cls-1" d="m325.77,161.72c30.52,0,36.26-19.3,36.26-63.38V0h29.47v94.16c0,55.56-7.3,93.9-64.95,93.9-17.22,0-30-3.91-40.95-11.48l7.04-24c5.48,3.91,17.48,9.13,33.13,9.13Z"/>
        <path class="cls-1" d="m411.58,0h29.21v159.37h99.38v25.82h-128.59V0Z"/>
        <path class="cls-1" d="m544.35,0h77.73c33.39,0,57.38,30.52,57.38,60.25s-22.43,60.51-55.82,60.51h-50.08v64.43h-29.21V0Zm77.47,94.94c16.43,0,27.91-14.87,27.91-34.69s-13.82-34.43-29.47-34.43h-46.69v69.12h48.26Z"/>
      </g>
      <g>
        <path class="cls-1" d="m10.65,56.95h19.37v-12.16h10.55v16.31h17.44v-20.95h10.64v48.82h-10.64v-18.78h-17.44v16.01H0v-41.41h10.65v12.16Zm19.37,20.36v-11.86H10.65v11.86h19.37Zm-7.86,24.71h35.85v-9.1h10.64v35.28H11.51v-35.28h10.64v9.1Zm35.85,17.29v-8.79H22.15v8.79h35.85Z"/>
        <path class="cls-1" d="m155.09,99.64h-34.51v29.75h-10.55v-29.75h-34.13v-8.9h79.19v8.9Zm-9.68-19.37h-59.82v-35.58h59.82v35.58Zm-49.37-8.6h38.73v-18.18h-38.73v18.18Z"/>
        <path class="cls-1" d="m170.52,56.95h19.37v-12.16h10.55v16.31h17.44v-20.95h10.65v48.82h-10.65v-18.78h-17.44v16.01h-40.56v-41.41h10.65v12.16Zm19.37,20.36v-11.86h-19.37v11.86h19.37Zm-7.86,24.71h35.85v-9.1h10.65v35.28h-57.14v-35.28h10.65v9.1Zm35.85,17.29v-8.79h-35.85v8.79h35.85Z"/>
        <path class="cls-1" d="m272.64,48.97c3.55,1.93,6.34,4.59,8.39,7.98,2.04,3.39,3.06,7.21,3.06,11.47s-1.02,8.18-3.06,11.59c-2.05,3.41-4.84,6.07-8.39,7.98s-7.5,2.87-11.84,2.87-8.34-.96-11.91-2.87-6.36-4.57-8.42-7.98c-2.04-3.41-3.06-7.27-3.06-11.59s1.02-8.08,3.06-11.47c2.05-3.4,4.85-6.05,8.42-7.98s7.53-2.89,11.91-2.89,8.29.96,11.84,2.89Zm-18.51,8.28c-1.98,1.05-3.53,2.55-4.65,4.5-1.11,1.94-1.65,4.16-1.63,6.67-.03,2.57.52,4.83,1.63,6.77,1.12,1.95,2.67,3.45,4.65,4.5,1.99,1.06,4.21,1.58,6.67,1.58s4.57-.52,6.53-1.58c1.94-1.05,3.49-2.55,4.62-4.5,1.13-1.94,1.7-4.2,1.7-6.77s-.57-4.73-1.7-6.67c-1.13-1.95-2.68-3.45-4.62-4.5-1.95-1.05-4.12-1.58-6.53-1.58s-4.67.53-6.67,1.58Zm56.33,70.47h-59.73v-29.45h10.75v20.56h48.99v8.9Zm-2.41-22.93h-10.73V40.24h10.73v64.54Z"/>
      </g>
    </g>
  </g>
</svg>